HIERARCHY
ROOT joint_Root
{
	OFFSET 0.0 0.0 0.0
	CHANNELS 6 Xposition Yposition Zposition Zrotation Xrotation Yrotation 
	JOINT Hips
	{
		OFFSET 4.5925 91.4895 -427.239
		CHANNELS 6 Xposition Yposition Zposition Zrotation Xrotation Yrotation 
		JOINT Spine
		{
			OFFSET 15.7357 0.0 0.0
			CHANNELS 6 Xposition Yposition Zposition Zrotation Xrotation Yrotation 
			JOINT Chest
			{
				OFFSET 8.98455 -0.406207 0.0
				CHANNELS 6 Xposition Yposition Zposition Zrotation Xrotation Yrotation 
				JOINT Neck
				{
					OFFSET 16.3773 0.0 0.0
					CHANNELS 6 Xposition Yposition Zposition Zrotation Xrotation Yrotation 
					JOINT Head
					{
						OFFSET 6.45672 0.0 0.0
						CHANNELS 6 Xposition Yposition Zposition Zrotation Xrotation Yrotation 
						End Site
						{
							OFFSET 0.0 0.0 0.0
						}
					}
				}
				JOINT Shoulder_L
				{
					OFFSET 12.9942 -0.242716 4.98039
					CHANNELS 6 Xposition Yposition Zposition Zrotation Xrotation Yrotation 
					JOINT UpperArm_L
					{
						OFFSET 5.34809 0.0 0.0
						CHANNELS 6 Xposition Yposition Zposition Zrotation Xrotation Yrotation 
						JOINT LowerArm_L
						{
							OFFSET 24.3286 1.87007e-05 0.0
							CHANNELS 6 Xposition Yposition Zposition Zrotation Xrotation Yrotation 
							JOINT Hand_L
							{
								OFFSET 22.2916 0.0 0.0
								CHANNELS 6 Xposition Yposition Zposition Zrotation Xrotation Yrotation 
								End Site
								{
									OFFSET 0.0 0.0 0.0
								}
							}
						}
					}
				}
				JOINT Shoulder_R
				{
					OFFSET 12.9945 -0.242716 -4.98039
					CHANNELS 6 Xposition Yposition Zposition Zrotation Xrotation Yrotation 
					JOINT UpperArm_R
					{
						OFFSET -5.34813 0.0 0.0
						CHANNELS 6 Xposition Yposition Zposition Zrotation Xrotation Yrotation 
						JOINT LowerArm_R
						{
							OFFSET -24.3289 0.000322201 0.0
							CHANNELS 6 Xposition Yposition Zposition Zrotation Xrotation Yrotation 
							JOINT Hand_R
							{
								OFFSET -22.2915 -0.000108084 0.0
								CHANNELS 6 Xposition Yposition Zposition Zrotation Xrotation Yrotation 
								End Site
								{
									OFFSET 0.0 0.0 0.0
								}
							}
						}
					}
				}
			}
		}
		JOINT UpperLeg_L
		{
			OFFSET -2.19248 -6.46944 0.0
			CHANNELS 6 Xposition Yposition Zposition Zrotation Xrotation Yrotation 
			JOINT LowerLeg_L
			{
				OFFSET 39.0811 0.0 -1.23785e-05
				CHANNELS 6 Xposition Yposition Zposition Zrotation Xrotation Yrotation 
				JOINT Foot_L
				{
					OFFSET 40.9854 0.0 -1.26872e-05
					CHANNELS 6 Xposition Yposition Zposition Zrotation Xrotation Yrotation 
					JOINT Toes_L
					{
						OFFSET 11.7543 0.0 0.0
						CHANNELS 6 Xposition Yposition Zposition Zrotation Xrotation Yrotation 
						End Site
						{
							OFFSET 0.0 0.0 0.0
						}
					}
				}
			}
		}
		JOINT UpperLeg_R
		{
			OFFSET -2.19251 6.46944 0.0
			CHANNELS 6 Xposition Yposition Zposition Zrotation Xrotation Yrotation 
			JOINT LowerLeg_R
			{
				OFFSET -39.0811 -0.00228153 -0.0401928
				CHANNELS 6 Xposition Yposition Zposition Zrotation Xrotation Yrotation 
				JOINT Foot_R
				{
					OFFSET -40.9854 0.0 0.0
					CHANNELS 6 Xposition Yposition Zposition Zrotation Xrotation Yrotation 
					JOINT Toes_R
					{
						OFFSET -11.7543 0.0 0.0
						CHANNELS 6 Xposition Yposition Zposition Zrotation Xrotation Yrotation 
						End Site
						{
							OFFSET 0.0 0.0 0.0
						}
					}
				}
			}
		}
	}
}
MOTION
Frames:	8
Frame Time:	0.0333333
0.000000 0.000000 0.000000 0.000000 0.000000 -0.000000 -0.155241 90.068600 0.222803 89.133900 -4.669500 11.154600 15.735700 0.000005 -0.000001 88.766600 78.309400 -88.504500 8.984550 -0.406207 -0.000000 15.611200 -0.478289 0.590382 16.377300 -0.000001 -0.000001 6.197580 -4.119420 1.956480 6.456720 -0.000001 -0.000000 -4.586720 -3.458680 3.104120 12.994200 -0.242716 4.980390 -91.117700 5.639600 -78.770600 5.348090 -0.000007 -0.000001 -59.256400 35.304400 -27.104000 24.328600 0.000019 0.000005 9.394300 22.306000 -23.552300 22.291600 -0.000001 0.000005 8.403170 5.235890 1.802740 12.994500 -0.242716 -4.980390 89.027700 10.155000 -84.501900 -5.348130 -0.000001 -0.000004 -58.507200 36.375300 -21.248600 -24.328900 0.000322 -0.000009 1.570360 4.191090 -20.574700 -22.291500 -0.000108 -0.000004 16.264800 5.427920 -3.867730 -2.192480 -6.469440 -0.000000 -174.419000 -13.900800 -0.488017 39.081100 -0.000007 -0.000012 -0.232719 0.336790 34.644500 40.985400 -0.000006 -0.000013 0.020015 2.176930 -72.590500 11.754300 -0.000000 0.000003 -0.000250 -0.002230 -16.661100 -2.192510 6.469440 -0.000001 173.608000 18.646700 -179.700000 -39.081100 -0.002282 -0.040193 -0.232403 0.352784 33.747400 -40.985400 0.000008 0.000006 3.520410 12.574800 -72.438700 -11.754300 -0.000006 -0.000006 -0.002233 -0.031595 -17.857900
0.000000 0.000000 0.000000 0.000000 0.000000 -0.000000 -0.196686 90.070800 0.225046 89.144800 -4.603300 11.122700 15.735700 0.000005 -0.000001 88.814900 78.298400 -88.519400 8.984550 -0.406207 -0.000000 15.633700 -0.456988 0.654279 16.377300 -0.000001 -0.000001 6.120000 -4.179340 1.987380 6.456720 -0.000001 -0.000000 -4.540540 -3.476260 3.136360 12.994200 -0.242716 4.980390 -91.141600 5.724290 -78.702000 5.348090 -0.000007 -0.000001 -59.052400 35.223500 -27.243100 24.328600 0.000019 0.000005 9.656020 22.055400 -24.375600 22.291600 -0.000001 0.000005 8.402600 5.238970 1.722510 12.994500 -0.242716 -4.980390 89.004700 10.243300 -84.420100 -5.348130 -0.000001 -0.000004 -58.306100 36.369500 -21.339400 -24.328900 0.000322 -0.000009 1.543730 4.108290 -20.627800 -22.291500 -0.000108 -0.000004 16.230300 5.427240 -3.844720 -2.192480 -6.469440 -0.000000 -174.423000 -13.845300 -0.519573 39.081100 -0.000007 -0.000012 -0.234319 0.339314 34.628100 40.985400 -0.000006 -0.000013 -0.004179 2.189350 -72.575300 11.754300 -0.000000 0.000003 -0.000244 -0.002186 -16.659500 -2.192510 6.469440 -0.000001 173.644000 18.679300 -179.725000 -39.081100 -0.002282 -0.040193 -0.227497 0.345386 33.751600 -40.985400 0.000008 0.000006 3.580010 12.514000 -72.467500 -11.754300 -0.000006 -0.000006 -0.002043 -0.029250 -17.762500
0.000000 0.000000 0.000000 0.000000 0.000000 -0.000000 -0.234715 90.064300 0.244463 89.161100 -4.510130 11.142100 15.735700 0.000005 -0.000001 88.812100 78.268100 -88.485400 8.984550 -0.406207 -0.000000 15.694400 -0.456963 0.717086 16.377300 -0.000001 -0.000001 6.044340 -4.222950 1.983140 6.456720 -0.000001 -0.000000 -4.502670 -3.494890 3.209730 12.994200 -0.242716 4.980390 -91.172600 5.827260 -78.601500 5.348090 -0.000007 -0.000001 -58.582800 35.338100 -27.582200 24.328600 0.000019 0.000005 9.856820 21.591600 -25.275000 22.291600 -0.000001 0.000005 8.495080 5.241020 1.668960 12.994500 -0.242716 -4.980390 88.990300 10.305000 -84.373300 -5.348130 -0.000001 -0.000004 -58.197000 36.236600 -21.387400 -24.328900 0.000322 -0.000009 1.566980 4.170070 -20.628800 -22.291500 -0.000108 -0.000004 16.146200 5.426150 -3.807310 -2.192480 -6.469440 -0.000000 -174.407000 -13.800100 -0.500634 39.081100 -0.000007 -0.000012 -0.233804 0.338405 34.641100 40.985400 -0.000006 -0.000013 -0.021604 2.241240 -72.585900 11.754300 -0.000000 0.000003 -0.000252 -0.002245 -16.661700 -2.192510 6.469440 -0.000001 173.640000 18.706300 -179.691000 -39.081100 -0.002282 -0.040193 -0.226214 0.342978 33.789200 -40.985400 0.000008 0.000006 3.645610 12.422800 -72.532000 -11.754300 -0.000006 -0.000006 -0.002355 -0.033072 -17.918000
0.000000 0.000000 0.000000 0.000000 0.000000 -0.000000 -0.274114 90.063900 0.263924 89.192200 -4.447760 11.159600 15.735700 0.000005 -0.000001 88.889100 78.239500 -88.535000 8.984550 -0.406207 -0.000000 15.752200 -0.424891 0.767736 16.377300 -0.000001 -0.000001 5.941200 -4.246520 1.964950 6.456720 -0.000001 -0.000000 -4.449730 -3.505260 3.274370 12.994200 -0.242716 4.980390 -91.196800 5.918360 -78.546900 5.348090 -0.000007 -0.000001 -58.160900 35.350600 -27.911200 24.328600 0.000019 0.000005 10.116300 21.185300 -26.276200 22.291600 -0.000001 0.000005 8.642930 5.241560 1.654780 12.994500 -0.242716 -4.980390 88.975000 10.386000 -84.332100 -5.348130 -0.000001 -0.000004 -58.022700 36.208200 -21.456100 -24.328900 0.000322 -0.000009 1.573860 4.203590 -20.560600 -22.291500 -0.000108 -0.000004 16.269900 5.426800 -3.829700 -2.192480 -6.469440 -0.000000 -174.406000 -13.786000 -0.471732 39.081100 -0.000007 -0.000012 -0.235453 0.341049 34.620800 40.985400 -0.000006 -0.000013 -0.031336 2.296050 -72.574800 11.754300 -0.000000 0.000003 -0.000244 -0.002186 -16.659500 -2.192510 6.469440 -0.000001 173.638000 18.725300 -179.662000 -39.081100 -0.002282 -0.040193 -0.218520 0.331112 33.818500 -40.985400 0.000008 0.000006 3.786680 12.340800 -72.608700 -11.754300 -0.000006 -0.000006 -0.002331 -0.032781 -17.906100
0.000000 0.000000 0.000000 0.000000 0.000000 -0.000000 -0.317922 90.054200 0.260529 89.212200 -4.324980 11.152600 15.735700 0.000005 -0.000001 88.845300 78.227100 -88.461600 8.984550 -0.406207 -0.000000 15.777000 -0.440955 0.829260 16.377300 -0.000001 -0.000001 5.822130 -4.266930 1.978090 6.456720 -0.000001 -0.000000 -4.382640 -3.469060 3.289520 12.994200 -0.242716 4.980390 -91.219500 5.993840 -78.478000 5.348090 -0.000007 -0.000001 -57.871900 35.202300 -28.203600 24.328600 0.000019 0.000005 10.346500 20.815200 -27.192500 22.291600 -0.000001 0.000005 8.765180 5.245790 1.543800 12.994500 -0.242716 -4.980390 88.953400 10.489900 -84.269700 -5.348130 -0.000001 -0.000004 -57.848800 36.169600 -21.487800 -24.328900 0.000322 -0.000009 1.559810 4.167980 -20.551700 -22.291500 -0.000108 -0.000004 16.301700 5.427470 -3.852530 -2.192480 -6.469440 -0.000000 -174.415000 -13.682400 -0.513061 39.081100 -0.000007 -0.000012 -0.236078 0.341491 34.657200 40.985400 -0.000006 -0.000013 -0.055158 2.327490 -72.581300 11.754300 -0.000000 0.000003 -0.000243 -0.002177 -16.659200 -2.192510 6.469440 -0.000001 173.639000 18.737000 -179.679000 -39.081100 -0.002282 -0.040193 -0.228793 0.346022 33.851100 -40.985400 0.000008 0.000006 3.626720 12.276600 -72.593200 -11.754300 -0.000006 -0.000006 -0.002035 -0.029154 -17.758600
0.000000 0.000000 0.000000 0.000000 0.000000 -0.000000 -0.363104 90.055100 0.272890 89.233800 -4.227200 11.164900 15.735700 0.000005 -0.000001 88.835600 78.205700 -88.420600 8.984550 -0.406207 -0.000000 15.819700 -0.443366 0.892414 16.377300 -0.000001 -0.000001 5.724180 -4.290130 1.989870 6.456720 -0.000001 -0.000000 -4.389240 -3.477340 3.317740 12.994200 -0.242716 4.980390 -91.248700 6.093680 -78.396300 5.348090 -0.000007 -0.000001 -57.554300 35.023700 -28.522600 24.328600 0.000019 0.000005 10.537700 20.363900 -28.127400 22.291600 -0.000001 0.000005 8.919290 5.249200 1.453890 12.994500 -0.242716 -4.980390 88.932300 10.573800 -84.200800 -5.348130 -0.000001 -0.000004 -57.719400 36.080300 -21.483700 -24.328900 0.000322 -0.000009 1.598720 4.260530 -20.602800 -22.291500 -0.000108 -0.000004 16.235000 5.425600 -3.788770 -2.192480 -6.469440 -0.000000 -174.414000 -13.628700 -0.503489 39.081100 -0.000007 -0.000012 -0.237803 0.344189 34.641300 40.985400 -0.000006 -0.000013 -0.068673 2.375480 -72.563300 11.754300 -0.000000 0.000003 -0.000241 -0.002164 -16.658700 -2.192510 6.469440 -0.000001 173.644000 18.801500 -179.650000 -39.081100 -0.002282 -0.040193 -0.223315 0.337470 33.881300 -40.985400 0.000008 0.000006 3.836290 12.164900 -72.685100 -11.754300 -0.000006 -0.000006 -0.002236 -0.031637 -17.859600
0.000000 0.000000 0.000000 0.000000 0.000000 -0.000000 -0.409764 90.050800 0.283670 89.232900 -4.130210 11.186700 15.735700 0.000005 -0.000001 88.834200 78.195700 -88.384000 8.984550 -0.406207 -0.000000 15.839900 -0.441745 0.962863 16.377300 -0.000001 -0.000001 5.668630 -4.324850 2.019670 6.456720 -0.000001 -0.000000 -4.402700 -3.483680 3.368380 12.994200 -0.242716 4.980390 -91.266400 6.149350 -78.339600 5.348090 -0.000007 -0.000001 -57.494100 34.626100 -28.706000 24.328600 0.000019 0.000005 10.800000 20.055500 -29.085600 22.291600 -0.000001 0.000005 9.178140 5.254210 1.321180 12.994500 -0.242716 -4.980390 88.916900 10.638100 -84.152700 -5.348130 -0.000001 -0.000004 -57.616000 36.049200 -21.432300 -24.328900 0.000322 -0.000009 1.577190 4.198210 -20.624600 -22.291500 -0.000108 -0.000004 16.347100 5.427080 -3.839240 -2.192480 -6.469440 -0.000000 -174.394000 -13.536100 -0.489546 39.081100 -0.000007 -0.000012 -0.235166 0.340201 34.654900 40.985400 -0.000006 -0.000013 -0.095034 2.400240 -72.569900 11.754300 -0.000000 0.000003 -0.000241 -0.002163 -16.658700 -2.192510 6.469440 -0.000001 173.656000 18.829000 -179.602000 -39.081100 -0.002282 -0.040193 -0.223055 0.337101 33.879900 -40.985400 0.000008 0.000006 3.765180 12.114500 -72.690500 -11.754300 -0.000006 -0.000006 -0.002052 -0.029362 -17.767000
0.000000 0.000000 0.000000 0.000000 0.000000 -0.000000 -0.455060 90.051600 0.292581 89.243100 -4.053860 11.182600 15.735700 0.000005 -0.000001 88.815000 78.186800 -88.343300 8.984550 -0.406207 -0.000000 15.857800 -0.448339 1.006850 16.377300 -0.000001 -0.000001 5.547680 -4.375720 2.072680 6.456720 -0.000001 -0.000000 -4.372670 -3.476060 3.438100 12.994200 -0.242716 4.980390 -91.280700 6.184210 -78.276100 5.348090 -0.000007 -0.000001 -57.511700 34.054100 -28.835600 24.328600 0.000019 0.000005 11.065400 19.657900 -30.171200 22.291600 -0.000001 0.000005 9.318620 5.261030 1.139530 12.994500 -0.242716 -4.980390 88.906200 10.669400 -84.112200 -5.348130 -0.000001 -0.000004 -57.550700 36.014400 -21.433800 -24.328900 0.000322 -0.000009 1.577880 4.202900 -20.611800 -22.291500 -0.000108 -0.000004 16.284200 5.425990 -3.801970 -2.192480 -6.469440 -0.000000 -174.368000 -13.496300 -0.495416 39.081100 -0.000007 -0.000012 -0.238407 0.345034 34.643600 40.985400 -0.000006 -0.000013 -0.115120 2.463620 -72.553100 11.754300 -0.000000 0.000003 -0.000254 -0.002263 -16.662300 -2.192510 6.469440 -0.000001 173.663000 18.923600 -179.585000 -39.081100 -0.002282 -0.040193 -0.222306 0.335991 33.879500 -40.985400 0.000008 0.000006 3.794330 12.111000 -72.710500 -11.754300 -0.000006 -0.000006 -0.002096 -0.029916 -17.789600
